<?xml version="1.0" encoding="UTF-8"?>
<svg id="Layer_2" data-name="Layer 2" xmlns="http://www.w3.org/2000/svg" viewBox="0 0 1027.9 159.04">
  <defs>
    <style>
      .cls-1 {
        fill: #003F3A;
      }
    </style>
  </defs>
  <g id="Camada_1" data-name="Camada 1">
    <g>
      <path class="cls-1" d="M306.74,77.86c1.77,0,3.79.26,6.08.77,2.28.52,4.46,1.4,6.52,2.65,2.06,1.25,3.79,2.91,5.2,4.98,1.4,2.07,2.1,4.72,2.1,7.96v30.52c0,2.8-.55,5.53-1.66,8.18-1.11,2.65-2.62,4.79-4.53,6.41-5.61,4.87-11.69,8.48-18.25,10.84-6.56,2.36-13.31,3.54-20.24,3.54-10.32,0-19.43-2.1-27.31-6.3-7.89-4.2-14.49-9.77-19.8-16.7-5.31-6.93-9.33-14.82-12.05-23.67-2.73-8.85-4.09-17.99-4.09-27.43,0-8.85,1.33-17.66,3.98-26.43,2.65-8.77,6.56-16.7,11.72-23.78,5.16-7.08,11.54-12.86,19.13-17.36,7.59-4.5,16.33-6.75,26.21-6.75,10.62,0,20.97,3.39,31.07,10.17,10.1,6.78,18.61,17.62,25.55,32.51h2.88l-9.07-44.68h-2.88c.15,1.18-.04,2.47-.55,3.87-.52,1.4-1.59,2.1-3.21,2.1s-3.61-.48-5.97-1.44c-2.36-.96-5.24-1.99-8.63-3.1-3.39-1.11-7.3-2.14-11.72-3.1-4.42-.96-9.59-1.44-15.48-1.44-12.39,0-23.78,1.92-34.17,5.75-10.4,3.84-19.28,9.22-26.65,16.15-7.37,6.93-13.13,15.26-17.25,24.99-4.13,9.73-6.19,20.57-6.19,32.51s2.06,22.56,6.19,32.29c4.13,9.73,9.88,18.06,17.25,24.99,7.37,6.93,16.26,12.31,26.65,16.15,10.39,3.83,21.79,5.75,34.17,5.75,10.17,0,19.09-1.37,26.76-4.09,7.67-2.73,14.38-6.45,20.13-11.17l15.04,12.39h2.88v-61.71c0-3.24.7-5.9,2.1-7.96,1.4-2.06,3.13-3.72,5.2-4.98,2.06-1.25,4.2-2.14,6.41-2.65,2.21-.52,4.2-.77,5.97-.77v-2.88h-59.5v2.88Z"/>
      <path class="cls-1" d="M500.51,152.97c-.23-.02-.45-.05-.67-.08t0,0c-1.77-.26-3.38-.81-4.82-1.66-.81-.48-1.57-1.04-2.27-1.71,0,0,0,0-.01-.01-.15-.14-.3-.29-.45-.44-.46-.45-.91-.93-1.34-1.44-.15-.17-.29-.34-.44-.52,0,0-.01-.01-.02-.02-.43-.52-.85-1.06-1.25-1.63-.55-.77-1.09-1.58-1.6-2.44-.13-.22-.26-.43-.38-.65-.13-.22-.25-.44-.37-.67-.09-.17-.18-.34-.27-.51-.15-.29-.31-.58-.45-.88h0s-.03-.05-.04-.08c-.03-.06-.06-.12-.09-.17-.43-.86-.85-1.75-1.27-2.66-.48-1.06-.96-2.15-1.43-3.27-.12-.29-.24-.58-.36-.87-.1-.25-.21-.51-.31-.77-.16-.41-.33-.82-.49-1.24-.11-.28-.22-.57-.33-.86-.11-.28-.21-.55-.31-.83-.21-.55-.41-1.11-.62-1.68-.05-.14-.1-.27-.15-.41-.02-.06-.04-.12-.06-.18-1.7-4.79-3.65-9.58-5.86-14.38-2.21-4.79-4.79-9.4-7.74-13.82-2.95-4.42-6.71-8.11-11.28-11.06,5.6-1.33,10.87-3.17,15.81-5.53,4.94-2.36,9.29-5.2,13.05-8.52,3.76-3.32,6.75-7.15,8.96-11.5,2.21-4.35,3.32-9.25,3.32-14.71,0-8.99-2.32-16.51-6.97-22.56-.73-.95-1.5-1.88-2.29-2.77-2.97,1.09-5.68,2.68-8.08,4.73-2.2,1.89-4.19,4.04-5.91,6.41,1.35,4.17,2.02,8.83,2.02,13.97s-.96,9.77-2.88,14.27c-1.92,4.5-4.57,8.4-7.96,11.72-3.39,3.32-7.41,5.94-12.05,7.85-4.65,1.92-9.77,2.88-15.37,2.88-4.13,0-8.48-.63-13.05-1.88-4.57-1.25-9.22-3.28-13.93-6.08v4.87c1.18,1.18,2.95,2.25,5.31,3.21,2.36.96,4.94,1.96,7.74,2.99,6.34,2.36,11.46,5.68,15.37,9.95,3.91,4.28,7.19,8.96,9.84,14.04,2.65,5.09,5.01,10.29,7.08,15.59,2.06,5.31,4.39,10.1,6.97,14.38.81,1.34,1.67,2.6,2.6,3.78l.11.13c.82,1.04,1.69,2.02,2.62,2.95.39.4.79.78,1.2,1.15.02.02.04.03.06.05.13.12.26.24.39.35.28.25.57.49.86.73.14.12.29.24.44.35.03.03.07.06.1.08.15.12.29.23.44.34.09.07.18.14.27.2.18.13.35.26.53.39.13.09.26.18.39.27.26.18.53.34.8.51.13.08.27.16.41.24.14.08.28.16.41.23.42.23.85.44,1.29.64,3.28,1.47,7.19,2.21,11.74,2.21h18.36v-2.88h-3.54c-.6,0-1.18-.03-1.75-.09Z"/>
      <path class="cls-1" d="M415.55,149.63c-2.07-1.25-3.8-2.91-5.2-4.97-1.4-2.06-2.1-4.72-2.1-7.96V8.19c5.01-1.92,11.13-2.88,18.36-2.88,6.49,0,12.68.85,18.58,2.54,5.89,1.7,11.13,4.28,15.7,7.74,2.06,1.57,3.93,3.32,5.6,5.26,1.84-3.32,4.04-6.35,6.56-9.02.17-.18.34-.35.51-.53-.42-.23-.85-.46-1.28-.68-7.15-3.68-15.08-6.3-23.78-7.85-8.7-1.55-17.18-2.32-25.44-2.32-5.45,0-10.43.15-14.93.44-4.5.3-8.85.63-13.05,1-4.2.37-8.44.7-12.72.99-4.28.3-8.92.44-13.93.44v2.65c1.77,0,3.8.26,6.08.77,2.29.52,4.46,1.4,6.53,2.65,2.06,1.25,3.79,2.95,5.2,5.09,1.4,2.14,2.1,4.83,2.1,8.07v114.12c0,3.25-.7,5.9-2.1,7.96-1.4,2.07-3.13,3.72-5.2,4.97-2.07,1.26-4.24,2.14-6.53,2.65-2.29.52-4.31.77-6.08.77v2.88h59.5v-2.88c-1.77,0-3.76-.25-5.97-.77-2.21-.51-4.35-1.4-6.41-2.65Z"/>
      <path class="cls-1" d="M463.93,147.19c-2.35,2.19-4.58,4.22-6.69,6.1v2.65h17.46c-1.33-.59-2.57-1.3-3.71-2.12-2.62-1.86-4.98-4.08-7.06-6.63Z"/>
      <path class="cls-1" d="M540.18,137.25c-4.72,1.26-10.1,1.88-16.15,1.88h-35.77s0,.01,0,.02c1.78,3.56,3.84,6.46,6.13,8.61,2.06,1.94,4.63,2.88,7.85,2.88h5.96v5.3h36.39l10.62-29.19h-2.88c-3.39,5.75-7.45,9.25-12.17,10.5Z"/>
      <path class="cls-1" d="M466.2,27.1c-2.14,5.24-3.65,10.88-4.53,16.92h3.98c1.38-4,3.17-7.6,5.36-10.81,2-2.95,4.35-5.58,7.03-7.87,3.04-2.6,6.5-4.5,10.37-5.69,3.26-1,6.8-1.5,10.64-1.5,4.57,0,8.7.92,12.39,2.77,3.68,1.84,6.82,4.28,9.4,7.3,2.58,3.02,4.57,6.52,5.97,10.5,1.4,3.98,2.1,8.11,2.1,12.39,0,6.05-1.22,12.24-3.65,18.58-2.43,6.34-5.61,12.68-9.51,19.02-3.91,6.34-8.41,12.57-13.49,18.69-5.09,6.12-10.28,11.94-15.59,17.47-1.04,1.08-2.08,2.16-3.11,3.21.65,1.77,1.32,3.48,2,5.12,3.9-3.85,7.73-7.89,11.5-12.09,5.75-6.41,11.42-12.64,17.03-18.69,3.68-3.98,7.52-8.37,11.5-13.16,3.98-4.79,7.63-9.84,10.95-15.15,3.32-5.31,6.08-10.76,8.29-16.37,2.21-5.6,3.32-11.21,3.32-16.81,0-5.9-1.18-11.28-3.54-16.14-2.36-4.87-5.53-9.07-9.51-12.61-3.98-3.54-8.59-6.26-13.82-8.18-5.24-1.92-10.65-2.88-16.26-2.88-6.49,0-12.24,1.11-17.25,3.32-3.79,1.67-7.19,3.81-10.18,6.42-.96.83-1.88,1.72-2.76,2.65-3.21,3.41-5.85,7.37-7.89,11.89-.26.56-.5,1.13-.74,1.71Z"/>
      <path class="cls-1" d="M607.2,149.63c-2.07-1.25-3.8-2.91-5.2-4.98-1.4-2.06-2.1-4.72-2.1-7.96V3.33h-3.98l-36.05,17.69,1.33,2.65,5.31-.44c5.16-.59,8.7-.03,10.62,1.66,1.91,1.7,2.88,5.27,2.88,10.73v101.08c0,3.25-.7,5.9-2.1,7.96-1.4,2.07-3.13,3.73-5.2,4.98-2.07,1.25-4.24,2.14-6.52,2.65-2.29.52-4.31.77-6.08.77v2.88h59.5v-2.88c-1.77,0-3.76-.26-5.97-.77-2.21-.51-4.35-1.4-6.41-2.65Z"/>
      <path class="cls-1" d="M158.77,108.29c-1.87-4.39-4.6-8.5-8.17-12.08-15-15-39.32-15-54.32,0,0,0,0,0,0,0-15,15-15,39.32,0,54.32,3.58,3.58,7.69,6.31,12.08,8.18.05.02.11.05.16.07.45.18.96.25,1.47.18,1.57-.21,2.68-1.61,2.55-3.17,0-.05,0-.1-.02-.15h0c0-.05-.02-.11-.03-.16-1.47-11.4,2.17-23.34,10.93-32.1h0c8.76-8.77,20.7-12.41,32.11-10.94.05,0,.1.02.16.02,0,0,0,0,0,0,.05,0,.1.01.15.02,1.56.13,2.96-.99,3.17-2.55.07-.52,0-1.03-.18-1.48-.02-.05-.04-.11-.07-.16Z"/>
      <path class="cls-1" d="M62.83,96.27c-15-15-39.32-15-54.32,0-3.58,3.58-6.31,7.69-8.18,12.08-.02.05-.04.1-.07.15-.18.45-.25.96-.18,1.48.21,1.56,1.61,2.68,3.16,2.56.05,0,.11,0,.16-.02h0c.05,0,.1-.02.16-.03,11.4-1.47,23.34,2.17,32.1,10.93,0,0,0,0,0,0,8.76,8.76,12.41,20.7,10.93,32.11,0,.05-.02.1-.03.16h0c0,.05-.01.1-.02.15-.13,1.56.99,2.96,2.55,3.17.52.07,1.03,0,1.48-.18.05-.02.11-.04.16-.07,4.39-1.87,8.5-4.6,12.08-8.17,15-15,15-39.32,0-54.32h0Z"/>
      <path class="cls-1" d="M.28,50.76c1.87,4.39,4.6,8.5,8.17,12.07,15,15,39.32,15,54.32,0h0c15-15,15-39.32,0-54.32-3.58-3.58-7.69-6.31-12.08-8.18-.05-.02-.1-.04-.15-.06-.45-.18-.96-.25-1.48-.18-1.56.21-2.68,1.61-2.56,3.16,0,.05,0,.11.02.16h0c0,.05.02.11.03.16,1.47,11.4-2.17,23.34-10.93,32.1,0,0,0,0,0,0-8.76,8.76-20.7,12.41-32.11,10.93-.05,0-.1-.02-.16-.03h0c-.05,0-.1-.01-.15-.02-1.56-.13-2.96.99-3.17,2.55-.07.52,0,1.02.18,1.47.02.06.05.11.07.17Z"/>
      <path class="cls-1" d="M96.22,62.78c15,15,39.32,15,54.32,0,3.58-3.58,6.31-7.69,8.18-12.08.02-.05.05-.11.07-.16.18-.45.25-.96.18-1.47-.21-1.57-1.61-2.68-3.17-2.55-.05,0-.1,0-.15.02h0c-.05,0-.1.02-.16.03-11.4,1.47-23.34-2.17-32.1-10.93,0,0,0,0,0,0-8.76-8.76-12.41-20.7-10.93-32.11,0-.05.02-.1.02-.15,0,0,0,0,0,0,0-.05.01-.1.02-.15.13-1.56-.99-2.96-2.55-3.17-.52-.07-1.02,0-1.47.18-.06.02-.11.05-.17.07-4.39,1.87-8.5,4.6-12.07,8.17-15,15-15,39.32,0,54.32,0,0,0,0,0,0Z"/>
      <path class="cls-1" d="M89.97,89.92l.66-.66,7.65-7.65c1.14-1.14,1.15-2.97.05-4.12l-.11-.11-7.6-7.6-1.36-1.36-7.6-7.6-.11-.11c-1.16-1.1-2.99-1.08-4.12.05l-7.65,7.65-.71.71-.65.65-7.6,7.6-.11.11c-1.1,1.16-1.08,2.99.05,4.12l16.67,16.67c1.14,1.14,2.97,1.15,4.12.05l.11-.11,7.6-7.6.7-.7ZM79.52,79.57l-.05-.05.05-.05.05.05-.05.05Z"/>
      <path class="cls-1" d="M641.01,53.89l-7.37,20.67h4.55l1.44-4.26h7.63l1.32,4.26h4.69l-7.29-20.67h-4.98ZM640.78,66.73l2.65-8.18h.06l2.56,8.18h-5.27Z"/>
      <path class="cls-1" d="M672.4,67.48h-4.32c-.55,2.53-2.16,3.89-4.58,3.89-3.31,0-5.13-2.82-5.13-7.08,0-4.69,2.07-7.2,5.21-7.2,2.19,0,3.89.95,4.49,3.57h4.32c-.4-4.2-3.89-7.31-8.9-7.31-5.67,0-9.53,4.15-9.53,10.91s3.63,10.85,9.44,10.85c4.72,0,8.03-2.68,8.98-7.63Z"/>
      <polygon class="cls-1" points="691.38 70.9 679.92 70.9 679.92 65.55 689.99 65.55 689.99 61.89 679.92 61.89 679.92 57.54 690.89 57.54 690.89 53.89 675.68 53.89 675.68 74.56 691.38 74.56 691.38 70.9"/>
      <polygon class="cls-1" points="709.49 70.82 699.21 70.82 699.21 53.89 694.89 53.89 694.89 74.56 709.49 74.56 709.49 70.82"/>
      <polygon class="cls-1" points="716.72 65.55 726.8 65.55 726.8 61.89 716.72 61.89 716.72 57.54 727.69 57.54 727.69 53.89 712.49 53.89 712.49 74.56 728.18 74.56 728.18 70.9 716.72 70.9 716.72 65.55"/>
      <path class="cls-1" d="M748.08,71.59v-1.93c0-1.73-.17-3.8-1.93-4.66l-.69-.35c2.07-.69,3.2-2.65,3.2-4.92,0-3.11-2.3-5.85-6.28-5.85h-10.68v20.67h4.23v-8.09h4.43c1.76,0,3.37.12,3.4,2.91l.03,2.25c0,1.04.2,2.27.43,2.94h4.78v-.55c-.89-.23-.92-1.73-.92-2.42ZM741.11,62.99h-5.18v-5.53h5.5c1.76,0,2.91,1.06,2.91,2.71,0,2.1-1.15,2.82-3.22,2.82Z"/>
      <path class="cls-1" d="M756.87,70.3h7.63l1.32,4.26h4.69l-7.29-20.67h-4.98l-7.37,20.67h4.55l1.44-4.26ZM760.67,58.55h.06l2.56,8.18h-5.27l2.65-8.18Z"/>
      <path class="cls-1" d="M790.82,63.73c0-5.53-2.62-9.85-8.26-9.85h-9.27v20.67h9.1c4.95,0,8.44-3.97,8.44-10.83ZM777.52,70.99v-13.53h4.32c3.37,0,4.58,2.65,4.58,6.56,0,4.32-1.76,6.97-4.61,6.97h-4.29Z"/>
      <path class="cls-1" d="M803.09,53.34c-5.73,0-9.93,3.71-9.93,10.88s4.32,10.88,9.93,10.88,9.93-3.63,9.93-10.88-4.15-10.88-9.93-10.88ZM803.09,71.45c-3.34,0-5.61-2.5-5.61-7.23s2.36-7.23,5.59-7.23,5.64,2.53,5.64,7.23-2.27,7.23-5.62,7.23Z"/>
      <path class="cls-1" d="M820.72,66.47h4.43c1.76,0,3.37.12,3.4,2.91l.03,2.25c0,1.04.2,2.27.43,2.94h4.78v-.55c-.89-.23-.92-1.73-.92-2.42v-1.93c0-1.73-.17-3.8-1.93-4.66l-.69-.35c2.07-.69,3.2-2.65,3.2-4.92,0-3.11-2.3-5.85-6.28-5.85h-10.68v20.67h4.23v-8.09ZM820.72,57.46h5.5c1.76,0,2.91,1.06,2.91,2.71,0,2.1-1.15,2.82-3.22,2.82h-5.18v-5.53Z"/>
      <path class="cls-1" d="M843.04,53.89l-7.37,20.67h4.55l1.44-4.26h7.63l1.32,4.26h4.69l-7.29-20.67h-4.98ZM842.81,66.73l2.65-8.18h.06l2.56,8.18h-5.27Z"/>
      <path class="cls-1" d="M883.61,63.73c0-5.53-2.62-9.85-8.26-9.85h-9.27v20.67h9.1c4.95,0,8.44-3.97,8.44-10.83ZM870.31,70.99v-13.53h4.32c3.37,0,4.58,2.65,4.58,6.56,0,4.32-1.76,6.97-4.61,6.97h-4.29Z"/>
      <polygon class="cls-1" points="891.1 65.55 901.18 65.55 901.18 61.89 891.1 61.89 891.1 57.54 902.07 57.54 902.07 53.89 886.87 53.89 886.87 74.56 902.56 74.56 902.56 70.9 891.1 70.9 891.1 65.55"/>
      <polygon class="cls-1" points="923.76 53.89 919.27 69.55 919.21 69.55 914.78 53.89 910.14 53.89 917.11 74.56 921.23 74.56 928.25 53.89 923.76 53.89"/>
      <polygon class="cls-1" points="946.69 70.9 935.23 70.9 935.23 65.55 945.3 65.55 945.3 61.89 935.23 61.89 935.23 57.54 946.2 57.54 946.2 53.89 930.99 53.89 930.99 74.56 946.69 74.56 946.69 70.9"/>
      <polygon class="cls-1" points="954.03 59.82 954.09 59.82 962.52 74.56 966.84 74.56 966.84 53.89 962.81 53.89 962.81 68.28 962.76 68.28 954.55 53.89 950 53.89 950 74.56 954.03 74.56 954.03 59.82"/>
      <path class="cls-1" d="M988.53,63.73c0-5.53-2.62-9.85-8.26-9.85h-9.27v20.67h9.1c4.95,0,8.44-3.97,8.44-10.83ZM975.23,70.99v-13.53h4.32c3.37,0,4.58,2.65,4.58,6.56,0,4.32-1.76,6.97-4.61,6.97h-4.29Z"/>
      <path class="cls-1" d="M995.01,70.3h7.63l1.32,4.26h4.69l-7.29-20.67h-4.98l-7.37,20.67h4.55l1.44-4.26ZM998.81,58.55h.06l2.56,8.18h-5.27l2.65-8.18Z"/>
      <path class="cls-1" d="M1018.89,71.54c-2.76,0-4.32-1.24-4.38-3.34h-4.15c.14,4.72,3.48,6.91,8.81,6.91,4.52,0,8.18-2.16,8.18-6.77,0-2.59-1.12-4.52-5.33-5.53l-4.87-1.18c-2.16-.52-2.45-1.27-2.45-2.25,0-1.53,1.5-2.48,3.6-2.48,2.33,0,4.03.83,4.23,3.11h4.15c-.12-4.03-3.23-6.68-8.06-6.68-5.38,0-7.95,2.76-7.95,6.36,0,3.17,1.58,4.95,5.36,5.79,5.73,1.27,7.17,1.67,7.17,3.37,0,1.81-1.55,2.68-4.32,2.68Z"/>
      <polygon class="cls-1" points="639.58 100.48 649.8 100.48 649.8 96.77 639.58 96.77 639.58 92.36 650.71 92.36 650.71 88.65 635.28 88.65 635.28 109.63 651.21 109.63 651.21 105.92 639.58 105.92 639.58 100.48"/>
      <polygon class="cls-1" points="672.95 105.19 672.89 105.19 669.09 88.65 662.69 88.65 662.69 109.63 666.78 109.63 666.78 92.09 666.84 92.09 670.67 109.63 674.96 109.63 678.88 92.09 678.94 92.09 678.94 109.63 683.03 109.63 683.03 88.65 676.69 88.65 672.95 105.19"/>
      <path class="cls-1" d="M693.08,88.65l-7.48,20.98h4.62l1.46-4.32h7.74l1.34,4.32h4.76l-7.39-20.98h-5.06ZM692.85,101.68l2.69-8.3h.06l2.6,8.3h-5.35Z"/>
      <path class="cls-1" d="M724.96,106.62v-1.96c0-1.75-.18-3.86-1.96-4.73l-.7-.35c2.1-.7,3.24-2.69,3.24-5,0-3.16-2.34-5.93-6.37-5.93h-10.84v20.98h4.3v-8.21h4.5c1.78,0,3.42.12,3.45,2.95l.03,2.28c0,1.05.21,2.31.44,2.98h4.85v-.56c-.91-.23-.93-1.75-.93-2.45ZM717.89,97.88h-5.26v-5.61h5.58c1.78,0,2.95,1.08,2.95,2.75,0,2.13-1.17,2.86-3.27,2.86Z"/>
      <polygon class="cls-1" points="747.81 88.65 742.14 88.65 734.14 97.18 734.14 88.65 729.75 88.65 729.75 109.63 734.14 109.63 734.14 102.53 736.18 100.42 742.67 109.63 748.31 109.63 739.25 97.24 747.81 88.65"/>
      <polygon class="cls-1" points="754.83 100.48 765.05 100.48 765.05 96.77 754.83 96.77 754.83 92.36 765.96 92.36 765.96 88.65 750.53 88.65 750.53 109.63 766.46 109.63 766.46 105.92 754.83 105.92 754.83 100.48"/>
      <polygon class="cls-1" points="768.21 92.36 774.55 92.36 774.55 109.63 778.93 109.63 778.93 92.36 785.27 92.36 785.27 88.65 768.21 88.65 768.21 92.36"/>
      <rect class="cls-1" x="787.53" y="88.65" width="4.38" height="20.98"/>
      <polygon class="cls-1" points="808.8 103.26 808.74 103.26 800.41 88.65 795.8 88.65 795.8 109.63 799.89 109.63 799.89 94.67 799.94 94.67 808.51 109.63 812.89 109.63 812.89 88.65 808.8 88.65 808.8 103.26"/>
      <path class="cls-1" d="M826.95,101.85h4.88c-.64,3.07-2.81,4.62-5.11,4.62-3.89,0-6.08-2.51-6.08-7.22s2.4-7.54,6.02-7.54c2.48,0,4.38,1.87,4.59,3.45h4.38c-.41-4.12-4.03-7.07-9.18-7.07-6.6,0-10.29,4.67-10.29,11.13,0,6.84,4.15,10.96,9.67,10.96,2.45,0,4.53-.73,6.52-3.19l.44,2.63h2.92v-11.31h-8.77v3.54Z"/>
      <rect class="cls-1" x="847.6" y="88.65" width="4.38" height="20.98"/>
      <polygon class="cls-1" points="866.13 105.19 866.07 105.19 862.27 88.65 855.88 88.65 855.88 109.63 859.97 109.63 859.97 92.09 860.02 92.09 863.85 109.63 868.15 109.63 872.06 92.09 872.12 92.09 872.12 109.63 876.21 109.63 876.21 88.65 869.87 88.65 866.13 105.19"/>
      <path class="cls-1" d="M889.57,88.09c-5.82,0-10.08,3.77-10.08,11.04s4.38,11.05,10.08,11.05,10.08-3.68,10.08-11.05-4.21-11.04-10.08-11.04ZM889.57,106.47c-3.39,0-5.7-2.54-5.7-7.33s2.4-7.33,5.67-7.33,5.73,2.57,5.73,7.33-2.31,7.33-5.7,7.33Z"/>
      <path class="cls-1" d="M917.24,98.32c2.02-.93,2.57-2.48,2.57-4.27,0-3.01-2.28-5.41-6.31-5.41h-10.34v20.98h9.26c3.71,0,5.14-.76,6.28-1.93,1.23-1.26,1.78-2.75,1.78-4.29,0-2.72-1.26-4.38-3.24-5.08ZM907.36,92.27h5.05c1.72,0,3.19.35,3.19,2.25s-1.49,2.34-3.04,2.34h-5.2v-4.59ZM912.77,106h-5.41v-5.61h5.55c2.02,0,3.18.99,3.18,2.54,0,2.22-1.34,3.07-3.33,3.07Z"/>
      <rect class="cls-1" x="923.9" y="88.65" width="4.38" height="20.98"/>
      <polygon class="cls-1" points="936.76 88.65 932.38 88.65 932.38 109.63 947.19 109.63 947.19 105.83 936.76 105.83 936.76 88.65"/>
      <rect class="cls-1" x="949.88" y="88.65" width="4.38" height="20.98"/>
      <path class="cls-1" d="M964.2,88.65l-7.48,20.98h4.62l1.46-4.32h7.74l1.34,4.32h4.76l-7.39-20.98h-5.06ZM963.97,101.68l2.69-8.3h.06l2.6,8.3h-5.35Z"/>
      <polygon class="cls-1" points="967.94 86.54 972.23 82.28 967.73 82.28 964.99 86.54 967.94 86.54"/>
      <path class="cls-1" d="M996.08,106.62v-1.96c0-1.75-.18-3.86-1.96-4.73l-.7-.35c2.1-.7,3.24-2.69,3.24-5,0-3.16-2.34-5.93-6.37-5.93h-10.84v20.98h4.3v-8.21h4.5c1.78,0,3.42.12,3.45,2.95l.03,2.28c0,1.05.21,2.31.44,2.98h4.85v-.56c-.91-.23-.93-1.75-.93-2.45ZM989.01,97.88h-5.26v-5.61h5.58c1.78,0,2.95,1.08,2.95,2.75,0,2.13-1.17,2.86-3.27,2.86Z"/>
      <rect class="cls-1" x="1000.2" y="88.65" width="4.38" height="20.98"/>
      <path class="cls-1" d="M1017.82,88.09c-5.82,0-10.08,3.77-10.08,11.04s4.38,11.05,10.08,11.05,10.08-3.68,10.08-11.05-4.21-11.04-10.08-11.04ZM1017.82,106.47c-3.39,0-5.7-2.54-5.7-7.33s2.4-7.33,5.67-7.33,5.73,2.57,5.73,7.33-2.31,7.33-5.7,7.33Z"/>
    </g>
  </g>
</svg>